%TF.GenerationSoftware,KiCad,Pcbnew,(5.0.0-rc2-18-g3893c43eb)*%
%TF.CreationDate,2018-05-30T13:16:08+02:00*%
%TF.ProjectId,micro_first,6D6963726F5F66697273742E6B696361,rev?*%
%TF.SameCoordinates,Original*%
%TF.FileFunction,Copper,L2,Bot,Signal*%
%TF.FilePolarity,Positive*%
%FSLAX46Y46*%
G04 Gerber Fmt 4.6, Leading zero omitted, Abs format (unit mm)*
G04 Created by KiCad (PCBNEW (5.0.0-rc2-18-g3893c43eb)) date 05/30/18 13:16:08*
%MOMM*%
%LPD*%
G01*
G04 APERTURE LIST*
%ADD10R,0.600000X0.700000*%
%ADD11R,1.700000X1.700000*%
%ADD12O,1.700000X1.700000*%
%ADD13C,2.060000*%
%ADD14R,0.450000X0.750000*%
%ADD15C,0.250000*%
%ADD16C,0.203200*%
%ADD17C,0.254000*%
G04 APERTURE END LIST*
D10*
X153800000Y-99700000D03*
X152800000Y-99700000D03*
D11*
X146500000Y-101700000D03*
D12*
X146500000Y-99160000D03*
X146500000Y-96620000D03*
X146500000Y-94080000D03*
D13*
X153980000Y-96400000D03*
D14*
X151800000Y-97250000D03*
X151800000Y-95550000D03*
X152500000Y-95550000D03*
X152500000Y-97250000D03*
D15*
X152500000Y-94760002D02*
X152500000Y-95550000D01*
D16*
X153800000Y-99700000D02*
X153800000Y-96580000D01*
X153890000Y-96490000D02*
X152950000Y-95550000D01*
X152950000Y-95550000D02*
X152500000Y-95550000D01*
D15*
X152500000Y-97600000D02*
X152500000Y-97250000D01*
D16*
X152800000Y-100400000D02*
X152800000Y-99700000D01*
X146500000Y-101700000D02*
X151500000Y-101700000D01*
X151500000Y-101700000D02*
X152800000Y-100400000D01*
X152500000Y-98500000D02*
X152500000Y-97250000D01*
X152800000Y-99700000D02*
X152800000Y-98800000D01*
X152800000Y-98800000D02*
X152500000Y-98500000D01*
D15*
X148410000Y-97250000D02*
X151800000Y-97250000D01*
X146500000Y-99160000D02*
X148410000Y-97250000D01*
X149750000Y-95550000D02*
X151800000Y-95550000D01*
X146500000Y-96620000D02*
X147570000Y-95550000D01*
X147570000Y-95550000D02*
X149750000Y-95550000D01*
D17*
G36*
X156990001Y-104990000D02*
X144010000Y-104990000D01*
X144010000Y-96620000D01*
X144985908Y-96620000D01*
X145101161Y-97199418D01*
X145429375Y-97690625D01*
X145727761Y-97890000D01*
X145429375Y-98089375D01*
X145101161Y-98580582D01*
X144985908Y-99160000D01*
X145101161Y-99739418D01*
X145429375Y-100230625D01*
X145447619Y-100242816D01*
X145402235Y-100251843D01*
X145192191Y-100392191D01*
X145051843Y-100602235D01*
X145002560Y-100850000D01*
X145002560Y-102550000D01*
X145051843Y-102797765D01*
X145192191Y-103007809D01*
X145402235Y-103148157D01*
X145650000Y-103197440D01*
X147350000Y-103197440D01*
X147597765Y-103148157D01*
X147807809Y-103007809D01*
X147948157Y-102797765D01*
X147997440Y-102550000D01*
X147997440Y-102436600D01*
X151427460Y-102436600D01*
X151500000Y-102451029D01*
X151572540Y-102436600D01*
X151572544Y-102436600D01*
X151787407Y-102393861D01*
X152031058Y-102231058D01*
X152072151Y-102169558D01*
X153269561Y-100972149D01*
X153331058Y-100931058D01*
X153372149Y-100869561D01*
X153372151Y-100869559D01*
X153493861Y-100687407D01*
X153494340Y-100685000D01*
X153514250Y-100685000D01*
X153673000Y-100526250D01*
X153673000Y-100335415D01*
X153698157Y-100297765D01*
X153747440Y-100050000D01*
X153747440Y-99827000D01*
X153927000Y-99827000D01*
X153927000Y-100526250D01*
X154085750Y-100685000D01*
X154226309Y-100685000D01*
X154459698Y-100588327D01*
X154638327Y-100409699D01*
X154735000Y-100176310D01*
X154735000Y-99985750D01*
X154576250Y-99827000D01*
X153927000Y-99827000D01*
X153747440Y-99827000D01*
X153747440Y-99350000D01*
X153698157Y-99102235D01*
X153673000Y-99064585D01*
X153673000Y-98873750D01*
X153927000Y-98873750D01*
X153927000Y-99573000D01*
X154576250Y-99573000D01*
X154735000Y-99414250D01*
X154735000Y-99223690D01*
X154638327Y-98990301D01*
X154459698Y-98811673D01*
X154226309Y-98715000D01*
X154085750Y-98715000D01*
X153927000Y-98873750D01*
X153673000Y-98873750D01*
X153539056Y-98739806D01*
X153536600Y-98727459D01*
X153536600Y-98727456D01*
X153493861Y-98512593D01*
X153331058Y-98268942D01*
X153269558Y-98227849D01*
X153236600Y-98194891D01*
X153236600Y-98002306D01*
X153291450Y-97920217D01*
X153708300Y-98075736D01*
X154370259Y-98052153D01*
X154872295Y-97844203D01*
X154974631Y-97574236D01*
X153980000Y-96579605D01*
X153965858Y-96593748D01*
X153786253Y-96414143D01*
X153800395Y-96400000D01*
X154159605Y-96400000D01*
X155154236Y-97394631D01*
X155424203Y-97292295D01*
X155655736Y-96671700D01*
X155632153Y-96009741D01*
X155424203Y-95507705D01*
X155154236Y-95405369D01*
X154159605Y-96400000D01*
X153800395Y-96400000D01*
X153786253Y-96385858D01*
X153965858Y-96206253D01*
X153980000Y-96220395D01*
X154974631Y-95225764D01*
X154872295Y-94955797D01*
X154251700Y-94724264D01*
X153589741Y-94747847D01*
X153287281Y-94873130D01*
X153263327Y-94815301D01*
X153084698Y-94636673D01*
X152851309Y-94540000D01*
X152771250Y-94540000D01*
X152612500Y-94698750D01*
X152612500Y-94911286D01*
X152482809Y-94717191D01*
X152272765Y-94576843D01*
X152263812Y-94575062D01*
X152228750Y-94540000D01*
X152148691Y-94540000D01*
X152128853Y-94548217D01*
X152025000Y-94527560D01*
X151575000Y-94527560D01*
X151327235Y-94576843D01*
X151117191Y-94717191D01*
X151068541Y-94790000D01*
X147795222Y-94790000D01*
X147941476Y-94436890D01*
X147820155Y-94207000D01*
X146627000Y-94207000D01*
X146627000Y-94227000D01*
X146373000Y-94227000D01*
X146373000Y-94207000D01*
X145179845Y-94207000D01*
X145058524Y-94436890D01*
X145228355Y-94846924D01*
X145618642Y-95275183D01*
X145748478Y-95336157D01*
X145429375Y-95549375D01*
X145101161Y-96040582D01*
X144985908Y-96620000D01*
X144010000Y-96620000D01*
X144010000Y-93723110D01*
X145058524Y-93723110D01*
X145179845Y-93953000D01*
X146373000Y-93953000D01*
X146373000Y-92759181D01*
X146627000Y-92759181D01*
X146627000Y-93953000D01*
X147820155Y-93953000D01*
X147941476Y-93723110D01*
X147771645Y-93313076D01*
X147381358Y-92884817D01*
X146856892Y-92638514D01*
X146627000Y-92759181D01*
X146373000Y-92759181D01*
X146143108Y-92638514D01*
X145618642Y-92884817D01*
X145228355Y-93313076D01*
X145058524Y-93723110D01*
X144010000Y-93723110D01*
X144010000Y-92010000D01*
X156990000Y-92010000D01*
X156990001Y-104990000D01*
X156990001Y-104990000D01*
G37*
X156990001Y-104990000D02*
X144010000Y-104990000D01*
X144010000Y-96620000D01*
X144985908Y-96620000D01*
X145101161Y-97199418D01*
X145429375Y-97690625D01*
X145727761Y-97890000D01*
X145429375Y-98089375D01*
X145101161Y-98580582D01*
X144985908Y-99160000D01*
X145101161Y-99739418D01*
X145429375Y-100230625D01*
X145447619Y-100242816D01*
X145402235Y-100251843D01*
X145192191Y-100392191D01*
X145051843Y-100602235D01*
X145002560Y-100850000D01*
X145002560Y-102550000D01*
X145051843Y-102797765D01*
X145192191Y-103007809D01*
X145402235Y-103148157D01*
X145650000Y-103197440D01*
X147350000Y-103197440D01*
X147597765Y-103148157D01*
X147807809Y-103007809D01*
X147948157Y-102797765D01*
X147997440Y-102550000D01*
X147997440Y-102436600D01*
X151427460Y-102436600D01*
X151500000Y-102451029D01*
X151572540Y-102436600D01*
X151572544Y-102436600D01*
X151787407Y-102393861D01*
X152031058Y-102231058D01*
X152072151Y-102169558D01*
X153269561Y-100972149D01*
X153331058Y-100931058D01*
X153372149Y-100869561D01*
X153372151Y-100869559D01*
X153493861Y-100687407D01*
X153494340Y-100685000D01*
X153514250Y-100685000D01*
X153673000Y-100526250D01*
X153673000Y-100335415D01*
X153698157Y-100297765D01*
X153747440Y-100050000D01*
X153747440Y-99827000D01*
X153927000Y-99827000D01*
X153927000Y-100526250D01*
X154085750Y-100685000D01*
X154226309Y-100685000D01*
X154459698Y-100588327D01*
X154638327Y-100409699D01*
X154735000Y-100176310D01*
X154735000Y-99985750D01*
X154576250Y-99827000D01*
X153927000Y-99827000D01*
X153747440Y-99827000D01*
X153747440Y-99350000D01*
X153698157Y-99102235D01*
X153673000Y-99064585D01*
X153673000Y-98873750D01*
X153927000Y-98873750D01*
X153927000Y-99573000D01*
X154576250Y-99573000D01*
X154735000Y-99414250D01*
X154735000Y-99223690D01*
X154638327Y-98990301D01*
X154459698Y-98811673D01*
X154226309Y-98715000D01*
X154085750Y-98715000D01*
X153927000Y-98873750D01*
X153673000Y-98873750D01*
X153539056Y-98739806D01*
X153536600Y-98727459D01*
X153536600Y-98727456D01*
X153493861Y-98512593D01*
X153331058Y-98268942D01*
X153269558Y-98227849D01*
X153236600Y-98194891D01*
X153236600Y-98002306D01*
X153291450Y-97920217D01*
X153708300Y-98075736D01*
X154370259Y-98052153D01*
X154872295Y-97844203D01*
X154974631Y-97574236D01*
X153980000Y-96579605D01*
X153965858Y-96593748D01*
X153786253Y-96414143D01*
X153800395Y-96400000D01*
X154159605Y-96400000D01*
X155154236Y-97394631D01*
X155424203Y-97292295D01*
X155655736Y-96671700D01*
X155632153Y-96009741D01*
X155424203Y-95507705D01*
X155154236Y-95405369D01*
X154159605Y-96400000D01*
X153800395Y-96400000D01*
X153786253Y-96385858D01*
X153965858Y-96206253D01*
X153980000Y-96220395D01*
X154974631Y-95225764D01*
X154872295Y-94955797D01*
X154251700Y-94724264D01*
X153589741Y-94747847D01*
X153287281Y-94873130D01*
X153263327Y-94815301D01*
X153084698Y-94636673D01*
X152851309Y-94540000D01*
X152771250Y-94540000D01*
X152612500Y-94698750D01*
X152612500Y-94911286D01*
X152482809Y-94717191D01*
X152272765Y-94576843D01*
X152263812Y-94575062D01*
X152228750Y-94540000D01*
X152148691Y-94540000D01*
X152128853Y-94548217D01*
X152025000Y-94527560D01*
X151575000Y-94527560D01*
X151327235Y-94576843D01*
X151117191Y-94717191D01*
X151068541Y-94790000D01*
X147795222Y-94790000D01*
X147941476Y-94436890D01*
X147820155Y-94207000D01*
X146627000Y-94207000D01*
X146627000Y-94227000D01*
X146373000Y-94227000D01*
X146373000Y-94207000D01*
X145179845Y-94207000D01*
X145058524Y-94436890D01*
X145228355Y-94846924D01*
X145618642Y-95275183D01*
X145748478Y-95336157D01*
X145429375Y-95549375D01*
X145101161Y-96040582D01*
X144985908Y-96620000D01*
X144010000Y-96620000D01*
X144010000Y-93723110D01*
X145058524Y-93723110D01*
X145179845Y-93953000D01*
X146373000Y-93953000D01*
X146373000Y-92759181D01*
X146627000Y-92759181D01*
X146627000Y-93953000D01*
X147820155Y-93953000D01*
X147941476Y-93723110D01*
X147771645Y-93313076D01*
X147381358Y-92884817D01*
X146856892Y-92638514D01*
X146627000Y-92759181D01*
X146373000Y-92759181D01*
X146143108Y-92638514D01*
X145618642Y-92884817D01*
X145228355Y-93313076D01*
X145058524Y-93723110D01*
X144010000Y-93723110D01*
X144010000Y-92010000D01*
X156990000Y-92010000D01*
X156990001Y-104990000D01*
M02*
