G04 #@! TF.GenerationSoftware,KiCad,Pcbnew,(2018-01-21 revision 6b9866de8)-makepkg*
G04 #@! TF.CreationDate,2018-06-15T04:58:28+02:00*
G04 #@! TF.ProjectId,micro_first,6D6963726F5F66697273742E6B696361,rev?*
G04 #@! TF.SameCoordinates,Original*
G04 #@! TF.FileFunction,Legend,Top*
G04 #@! TF.FilePolarity,Positive*
%FSLAX46Y46*%
G04 Gerber Fmt 4.6, Leading zero omitted, Abs format (unit mm)*
G04 Created by KiCad (PCBNEW (2018-01-21 revision 6b9866de8)-makepkg) date 06/15/18 04:58:28*
%MOMM*%
%LPD*%
G01*
G04 APERTURE LIST*
%ADD10C,0.150000*%
%ADD11C,0.120000*%
G04 APERTURE END LIST*
D10*
X148309523Y-101261904D02*
X148804761Y-101261904D01*
X148538095Y-101566666D01*
X148652380Y-101566666D01*
X148728571Y-101604761D01*
X148766666Y-101642857D01*
X148804761Y-101719047D01*
X148804761Y-101909523D01*
X148766666Y-101985714D01*
X148728571Y-102023809D01*
X148652380Y-102061904D01*
X148423809Y-102061904D01*
X148347619Y-102023809D01*
X148309523Y-101985714D01*
X149033333Y-101261904D02*
X149300000Y-102061904D01*
X149566666Y-101261904D01*
X149757142Y-101261904D02*
X150252380Y-101261904D01*
X149985714Y-101566666D01*
X150100000Y-101566666D01*
X150176190Y-101604761D01*
X150214285Y-101642857D01*
X150252380Y-101719047D01*
X150252380Y-101909523D01*
X150214285Y-101985714D01*
X150176190Y-102023809D01*
X150100000Y-102061904D01*
X149871428Y-102061904D01*
X149795238Y-102023809D01*
X149757142Y-101985714D01*
X148300000Y-99561904D02*
X148300000Y-98761904D01*
X148490476Y-98761904D01*
X148604761Y-98800000D01*
X148680952Y-98876190D01*
X148719047Y-98952380D01*
X148757142Y-99104761D01*
X148757142Y-99219047D01*
X148719047Y-99371428D01*
X148680952Y-99447619D01*
X148604761Y-99523809D01*
X148490476Y-99561904D01*
X148300000Y-99561904D01*
X149061904Y-99333333D02*
X149442857Y-99333333D01*
X148985714Y-99561904D02*
X149252380Y-98761904D01*
X149519047Y-99561904D01*
X149671428Y-98761904D02*
X150128571Y-98761904D01*
X149900000Y-99561904D02*
X149900000Y-98761904D01*
X150357142Y-99333333D02*
X150738095Y-99333333D01*
X150280952Y-99561904D02*
X150547619Y-98761904D01*
X150814285Y-99561904D01*
X148723809Y-96885714D02*
X148685714Y-96923809D01*
X148571428Y-96961904D01*
X148495238Y-96961904D01*
X148380952Y-96923809D01*
X148304761Y-96847619D01*
X148266666Y-96771428D01*
X148228571Y-96619047D01*
X148228571Y-96504761D01*
X148266666Y-96352380D01*
X148304761Y-96276190D01*
X148380952Y-96200000D01*
X148495238Y-96161904D01*
X148571428Y-96161904D01*
X148685714Y-96200000D01*
X148723809Y-96238095D01*
X149447619Y-96961904D02*
X149066666Y-96961904D01*
X149066666Y-96161904D01*
X149714285Y-96961904D02*
X149714285Y-96161904D01*
X150171428Y-96961904D02*
X149828571Y-96504761D01*
X150171428Y-96161904D02*
X149714285Y-96619047D01*
X148690476Y-93600000D02*
X148614285Y-93561904D01*
X148500000Y-93561904D01*
X148385714Y-93600000D01*
X148309523Y-93676190D01*
X148271428Y-93752380D01*
X148233333Y-93904761D01*
X148233333Y-94019047D01*
X148271428Y-94171428D01*
X148309523Y-94247619D01*
X148385714Y-94323809D01*
X148500000Y-94361904D01*
X148576190Y-94361904D01*
X148690476Y-94323809D01*
X148728571Y-94285714D01*
X148728571Y-94019047D01*
X148576190Y-94019047D01*
X149071428Y-94361904D02*
X149071428Y-93561904D01*
X149528571Y-94361904D01*
X149528571Y-93561904D01*
X149909523Y-94361904D02*
X149909523Y-93561904D01*
X150100000Y-93561904D01*
X150214285Y-93600000D01*
X150290476Y-93676190D01*
X150328571Y-93752380D01*
X150366666Y-93904761D01*
X150366666Y-94019047D01*
X150328571Y-94171428D01*
X150290476Y-94247619D01*
X150214285Y-94323809D01*
X150100000Y-94361904D01*
X149909523Y-94361904D01*
D11*
X147830000Y-92750000D02*
X145170000Y-92750000D01*
X147830000Y-100430000D02*
X147830000Y-92750000D01*
X145170000Y-100430000D02*
X145170000Y-92750000D01*
X147830000Y-100430000D02*
X145170000Y-100430000D01*
X147830000Y-101700000D02*
X147830000Y-103030000D01*
X147830000Y-103030000D02*
X146500000Y-103030000D01*
D10*
X146233333Y-103591904D02*
X146233333Y-104163333D01*
X146195238Y-104277619D01*
X146119047Y-104353809D01*
X146004761Y-104391904D01*
X145928571Y-104391904D01*
X147033333Y-104391904D02*
X146576190Y-104391904D01*
X146804761Y-104391904D02*
X146804761Y-103591904D01*
X146728571Y-103706190D01*
X146652380Y-103782380D01*
X146576190Y-103820476D01*
M02*
