G04 #@! TF.GenerationSoftware,KiCad,Pcbnew,(2018-01-21 revision 6b9866de8)-makepkg*
G04 #@! TF.CreationDate,2018-06-15T04:58:28+02:00*
G04 #@! TF.ProjectId,micro_first,6D6963726F5F66697273742E6B696361,rev?*
G04 #@! TF.SameCoordinates,Original*
G04 #@! TF.FileFunction,Copper,L2,Bot,Signal*
G04 #@! TF.FilePolarity,Positive*
%FSLAX46Y46*%
G04 Gerber Fmt 4.6, Leading zero omitted, Abs format (unit mm)*
G04 Created by KiCad (PCBNEW (2018-01-21 revision 6b9866de8)-makepkg) date 06/15/18 04:58:28*
%MOMM*%
%LPD*%
G01*
G04 APERTURE LIST*
%ADD10C,0.010000*%
%ADD11C,0.100000*%
%ADD12R,0.450000X0.750000*%
%ADD13R,0.600000X0.700000*%
%ADD14R,1.700000X1.700000*%
%ADD15O,1.700000X1.700000*%
%ADD16C,0.304800*%
%ADD17C,0.203200*%
%ADD18C,0.250000*%
%ADD19C,0.254000*%
G04 APERTURE END LIST*
D10*
X152980000Y-96400000D03*
D11*
G36*
X154059021Y-95373036D02*
X154158858Y-95385648D01*
X154256987Y-95407943D01*
X154352473Y-95439706D01*
X154444404Y-95480637D01*
X154531902Y-95530342D01*
X154614131Y-95588349D01*
X154690308Y-95654103D01*
X154759705Y-95726977D01*
X154821659Y-95806275D01*
X154875580Y-95891240D01*
X154920952Y-95981061D01*
X154957342Y-96074881D01*
X154984404Y-96171805D01*
X155001878Y-96270907D01*
X155009598Y-96371241D01*
X155010000Y-96400000D01*
X155005084Y-96500510D01*
X154990384Y-96600061D01*
X154966039Y-96697703D01*
X154932282Y-96792502D01*
X154889436Y-96883556D01*
X154837909Y-96969993D01*
X154778193Y-97050990D01*
X154710858Y-97125773D01*
X154636547Y-97193629D01*
X154555969Y-97253909D01*
X154469893Y-97306038D01*
X154379141Y-97349519D01*
X154284579Y-97383937D01*
X154187110Y-97408963D01*
X154087664Y-97424358D01*
X153987191Y-97429975D01*
X153886648Y-97425761D01*
X153786997Y-97411756D01*
X153689188Y-97388093D01*
X153594155Y-97354999D01*
X153502805Y-97312790D01*
X153416010Y-97261867D01*
X153334598Y-97202718D01*
X153259347Y-97135907D01*
X153190974Y-97062071D01*
X153130133Y-96981916D01*
X153077404Y-96896206D01*
X153033291Y-96805760D01*
X152998214Y-96711441D01*
X152972508Y-96614149D01*
X152956419Y-96514813D01*
X152950100Y-96414381D01*
X152950884Y-96391902D01*
X153400057Y-96391902D01*
X153402034Y-96448533D01*
X153409529Y-96504701D01*
X153422468Y-96559870D01*
X153440730Y-96613512D01*
X153464139Y-96665117D01*
X153492471Y-96714191D01*
X153525458Y-96760266D01*
X153562783Y-96802902D01*
X153604090Y-96841692D01*
X153648986Y-96876267D01*
X153697041Y-96906295D01*
X153747798Y-96931490D01*
X153800770Y-96951613D01*
X153855454Y-96966470D01*
X153911326Y-96975920D01*
X153967853Y-96979873D01*
X154024497Y-96978291D01*
X154080716Y-96971188D01*
X154135973Y-96958634D01*
X154189742Y-96940748D01*
X154241509Y-96917700D01*
X154290780Y-96889710D01*
X154337084Y-96857046D01*
X154379979Y-96820020D01*
X154419057Y-96778984D01*
X154453944Y-96734331D01*
X154484307Y-96686486D01*
X154509856Y-96635907D01*
X154530348Y-96583076D01*
X154545587Y-96528498D01*
X154555427Y-96472693D01*
X154559774Y-96416195D01*
X154560000Y-96400000D01*
X154557232Y-96343402D01*
X154548954Y-96287344D01*
X154535245Y-96232362D01*
X154516237Y-96178979D01*
X154492110Y-96127706D01*
X154463094Y-96079033D01*
X154429468Y-96033423D01*
X154391551Y-95991312D01*
X154349706Y-95953102D01*
X154304332Y-95919158D01*
X154255862Y-95889804D01*
X154204759Y-95865319D01*
X154151511Y-95845939D01*
X154096625Y-95831846D01*
X154040627Y-95823177D01*
X153984049Y-95820014D01*
X153927433Y-95822387D01*
X153871319Y-95830273D01*
X153816242Y-95843598D01*
X153762728Y-95862233D01*
X153711288Y-95886002D01*
X153662413Y-95914677D01*
X153616570Y-95947984D01*
X153574195Y-95985606D01*
X153535694Y-96027183D01*
X153501434Y-96072319D01*
X153471742Y-96120583D01*
X153446902Y-96171514D01*
X153427149Y-96224625D01*
X153412674Y-96279411D01*
X153403615Y-96335348D01*
X153400057Y-96391902D01*
X152950884Y-96391902D01*
X152953612Y-96313812D01*
X152966921Y-96214065D01*
X152989900Y-96116094D01*
X153022330Y-96020832D01*
X153063901Y-95929189D01*
X153114216Y-95842041D01*
X153172796Y-95760218D01*
X153239080Y-95684502D01*
X153312437Y-95615616D01*
X153392165Y-95554216D01*
X153477505Y-95500890D01*
X153567640Y-95456146D01*
X153661712Y-95420412D01*
X153758823Y-95394028D01*
X153858044Y-95377246D01*
X153958429Y-95370226D01*
X154059021Y-95373036D01*
X154059021Y-95373036D01*
G37*
D12*
X151800000Y-97250000D03*
X151800000Y-95550000D03*
X152500000Y-95550000D03*
X152500000Y-97250000D03*
D13*
X153800000Y-99700000D03*
X152800000Y-99700000D03*
D14*
X146500000Y-101700000D03*
D15*
X146500000Y-99160000D03*
X146500000Y-96620000D03*
X146500000Y-94080000D03*
D16*
X154500000Y-97000000D02*
X155200000Y-97700000D01*
X155200000Y-97700000D02*
X155400000Y-97700000D01*
X154600000Y-95700000D02*
X155300000Y-95000000D01*
X155300000Y-95000000D02*
X155500000Y-95000000D01*
D17*
X153800000Y-99700000D02*
X153800000Y-97220000D01*
X153400000Y-95900000D02*
X153050000Y-95550000D01*
X153050000Y-95550000D02*
X152500000Y-95550000D01*
D18*
X152500000Y-94760002D02*
X152500000Y-95550000D01*
X152500000Y-97600000D02*
X152500000Y-97250000D01*
D17*
X152800000Y-100400000D02*
X152800000Y-99700000D01*
X146500000Y-101700000D02*
X151500000Y-101700000D01*
X151500000Y-101700000D02*
X152800000Y-100400000D01*
X152500000Y-98500000D02*
X152500000Y-97250000D01*
X152800000Y-99700000D02*
X152800000Y-98800000D01*
X152800000Y-98800000D02*
X152500000Y-98500000D01*
D18*
X148410000Y-97250000D02*
X151800000Y-97250000D01*
X146500000Y-99160000D02*
X148410000Y-97250000D01*
X149750000Y-95550000D02*
X151800000Y-95550000D01*
X146500000Y-96620000D02*
X147570000Y-95550000D01*
X147570000Y-95550000D02*
X149750000Y-95550000D01*
D19*
G36*
X156990000Y-104990000D02*
X144010000Y-104990000D01*
X144010000Y-96620000D01*
X144985908Y-96620000D01*
X145101161Y-97199418D01*
X145429375Y-97690625D01*
X145727761Y-97890000D01*
X145429375Y-98089375D01*
X145101161Y-98580582D01*
X144985908Y-99160000D01*
X145101161Y-99739418D01*
X145429375Y-100230625D01*
X145447619Y-100242816D01*
X145402235Y-100251843D01*
X145192191Y-100392191D01*
X145051843Y-100602235D01*
X145002560Y-100850000D01*
X145002560Y-102550000D01*
X145051843Y-102797765D01*
X145192191Y-103007809D01*
X145402235Y-103148157D01*
X145650000Y-103197440D01*
X147350000Y-103197440D01*
X147597765Y-103148157D01*
X147807809Y-103007809D01*
X147948157Y-102797765D01*
X147997440Y-102550000D01*
X147997440Y-102436600D01*
X151500000Y-102436600D01*
X151781885Y-102380530D01*
X152020855Y-102220855D01*
X153320855Y-100920855D01*
X153470136Y-100697440D01*
X153478449Y-100685000D01*
X153514250Y-100685000D01*
X153673000Y-100526250D01*
X153673000Y-100335415D01*
X153698157Y-100297765D01*
X153747440Y-100050000D01*
X153747440Y-99827000D01*
X153927000Y-99827000D01*
X153927000Y-100526250D01*
X154085750Y-100685000D01*
X154226309Y-100685000D01*
X154459698Y-100588327D01*
X154638327Y-100409699D01*
X154735000Y-100176310D01*
X154735000Y-99985750D01*
X154576250Y-99827000D01*
X153927000Y-99827000D01*
X153747440Y-99827000D01*
X153747440Y-99350000D01*
X153698157Y-99102235D01*
X153673000Y-99064585D01*
X153673000Y-98873750D01*
X153927000Y-98873750D01*
X153927000Y-99573000D01*
X154576250Y-99573000D01*
X154735000Y-99414250D01*
X154735000Y-99223690D01*
X154638327Y-98990301D01*
X154459698Y-98811673D01*
X154226309Y-98715000D01*
X154085750Y-98715000D01*
X153927000Y-98873750D01*
X153673000Y-98873750D01*
X153521044Y-98721794D01*
X153480530Y-98518115D01*
X153320855Y-98279145D01*
X153236600Y-98194890D01*
X153236600Y-98002306D01*
X153287930Y-97925486D01*
X153294199Y-97928763D01*
X153411354Y-97976097D01*
X153604196Y-98032854D01*
X153728318Y-98056531D01*
X153928512Y-98074750D01*
X154054866Y-98073868D01*
X154254785Y-98052856D01*
X154378565Y-98027448D01*
X154570596Y-97968004D01*
X154687078Y-97919039D01*
X154863906Y-97823429D01*
X154968664Y-97752769D01*
X155123553Y-97624633D01*
X155212588Y-97534974D01*
X155339639Y-97379194D01*
X155409565Y-97273946D01*
X155503938Y-97096455D01*
X155552088Y-96979635D01*
X155610190Y-96787194D01*
X155634734Y-96663240D01*
X155654350Y-96463179D01*
X155657377Y-96390951D01*
X155656975Y-96362192D01*
X155651933Y-96290097D01*
X155626739Y-96090661D01*
X155598744Y-95967441D01*
X155535292Y-95776697D01*
X155483897Y-95661261D01*
X155384604Y-95486475D01*
X155311768Y-95383225D01*
X155180417Y-95231053D01*
X155088913Y-95143914D01*
X154930507Y-95020153D01*
X154823818Y-94952446D01*
X154644389Y-94861810D01*
X154526582Y-94816116D01*
X154332967Y-94762058D01*
X154208528Y-94740116D01*
X154008099Y-94724694D01*
X153881768Y-94727341D01*
X153682162Y-94751143D01*
X153558756Y-94778275D01*
X153367573Y-94840393D01*
X153288102Y-94875113D01*
X153263327Y-94815301D01*
X153084698Y-94636673D01*
X152851309Y-94540000D01*
X152771250Y-94540000D01*
X152612500Y-94698750D01*
X152612500Y-94911286D01*
X152482809Y-94717191D01*
X152272765Y-94576843D01*
X152263812Y-94575062D01*
X152228750Y-94540000D01*
X152148691Y-94540000D01*
X152128853Y-94548217D01*
X152025000Y-94527560D01*
X151575000Y-94527560D01*
X151327235Y-94576843D01*
X151117191Y-94717191D01*
X151068541Y-94790000D01*
X147795222Y-94790000D01*
X147941476Y-94436890D01*
X147820155Y-94207000D01*
X146627000Y-94207000D01*
X146627000Y-94227000D01*
X146373000Y-94227000D01*
X146373000Y-94207000D01*
X145179845Y-94207000D01*
X145058524Y-94436890D01*
X145228355Y-94846924D01*
X145618642Y-95275183D01*
X145748478Y-95336157D01*
X145429375Y-95549375D01*
X145101161Y-96040582D01*
X144985908Y-96620000D01*
X144010000Y-96620000D01*
X144010000Y-93723110D01*
X145058524Y-93723110D01*
X145179845Y-93953000D01*
X146373000Y-93953000D01*
X146373000Y-92759181D01*
X146627000Y-92759181D01*
X146627000Y-93953000D01*
X147820155Y-93953000D01*
X147941476Y-93723110D01*
X147771645Y-93313076D01*
X147381358Y-92884817D01*
X146856892Y-92638514D01*
X146627000Y-92759181D01*
X146373000Y-92759181D01*
X146143108Y-92638514D01*
X145618642Y-92884817D01*
X145228355Y-93313076D01*
X145058524Y-93723110D01*
X144010000Y-93723110D01*
X144010000Y-92010000D01*
X156990000Y-92010000D01*
X156990000Y-104990000D01*
X156990000Y-104990000D01*
G37*
X156990000Y-104990000D02*
X144010000Y-104990000D01*
X144010000Y-96620000D01*
X144985908Y-96620000D01*
X145101161Y-97199418D01*
X145429375Y-97690625D01*
X145727761Y-97890000D01*
X145429375Y-98089375D01*
X145101161Y-98580582D01*
X144985908Y-99160000D01*
X145101161Y-99739418D01*
X145429375Y-100230625D01*
X145447619Y-100242816D01*
X145402235Y-100251843D01*
X145192191Y-100392191D01*
X145051843Y-100602235D01*
X145002560Y-100850000D01*
X145002560Y-102550000D01*
X145051843Y-102797765D01*
X145192191Y-103007809D01*
X145402235Y-103148157D01*
X145650000Y-103197440D01*
X147350000Y-103197440D01*
X147597765Y-103148157D01*
X147807809Y-103007809D01*
X147948157Y-102797765D01*
X147997440Y-102550000D01*
X147997440Y-102436600D01*
X151500000Y-102436600D01*
X151781885Y-102380530D01*
X152020855Y-102220855D01*
X153320855Y-100920855D01*
X153470136Y-100697440D01*
X153478449Y-100685000D01*
X153514250Y-100685000D01*
X153673000Y-100526250D01*
X153673000Y-100335415D01*
X153698157Y-100297765D01*
X153747440Y-100050000D01*
X153747440Y-99827000D01*
X153927000Y-99827000D01*
X153927000Y-100526250D01*
X154085750Y-100685000D01*
X154226309Y-100685000D01*
X154459698Y-100588327D01*
X154638327Y-100409699D01*
X154735000Y-100176310D01*
X154735000Y-99985750D01*
X154576250Y-99827000D01*
X153927000Y-99827000D01*
X153747440Y-99827000D01*
X153747440Y-99350000D01*
X153698157Y-99102235D01*
X153673000Y-99064585D01*
X153673000Y-98873750D01*
X153927000Y-98873750D01*
X153927000Y-99573000D01*
X154576250Y-99573000D01*
X154735000Y-99414250D01*
X154735000Y-99223690D01*
X154638327Y-98990301D01*
X154459698Y-98811673D01*
X154226309Y-98715000D01*
X154085750Y-98715000D01*
X153927000Y-98873750D01*
X153673000Y-98873750D01*
X153521044Y-98721794D01*
X153480530Y-98518115D01*
X153320855Y-98279145D01*
X153236600Y-98194890D01*
X153236600Y-98002306D01*
X153287930Y-97925486D01*
X153294199Y-97928763D01*
X153411354Y-97976097D01*
X153604196Y-98032854D01*
X153728318Y-98056531D01*
X153928512Y-98074750D01*
X154054866Y-98073868D01*
X154254785Y-98052856D01*
X154378565Y-98027448D01*
X154570596Y-97968004D01*
X154687078Y-97919039D01*
X154863906Y-97823429D01*
X154968664Y-97752769D01*
X155123553Y-97624633D01*
X155212588Y-97534974D01*
X155339639Y-97379194D01*
X155409565Y-97273946D01*
X155503938Y-97096455D01*
X155552088Y-96979635D01*
X155610190Y-96787194D01*
X155634734Y-96663240D01*
X155654350Y-96463179D01*
X155657377Y-96390951D01*
X155656975Y-96362192D01*
X155651933Y-96290097D01*
X155626739Y-96090661D01*
X155598744Y-95967441D01*
X155535292Y-95776697D01*
X155483897Y-95661261D01*
X155384604Y-95486475D01*
X155311768Y-95383225D01*
X155180417Y-95231053D01*
X155088913Y-95143914D01*
X154930507Y-95020153D01*
X154823818Y-94952446D01*
X154644389Y-94861810D01*
X154526582Y-94816116D01*
X154332967Y-94762058D01*
X154208528Y-94740116D01*
X154008099Y-94724694D01*
X153881768Y-94727341D01*
X153682162Y-94751143D01*
X153558756Y-94778275D01*
X153367573Y-94840393D01*
X153288102Y-94875113D01*
X153263327Y-94815301D01*
X153084698Y-94636673D01*
X152851309Y-94540000D01*
X152771250Y-94540000D01*
X152612500Y-94698750D01*
X152612500Y-94911286D01*
X152482809Y-94717191D01*
X152272765Y-94576843D01*
X152263812Y-94575062D01*
X152228750Y-94540000D01*
X152148691Y-94540000D01*
X152128853Y-94548217D01*
X152025000Y-94527560D01*
X151575000Y-94527560D01*
X151327235Y-94576843D01*
X151117191Y-94717191D01*
X151068541Y-94790000D01*
X147795222Y-94790000D01*
X147941476Y-94436890D01*
X147820155Y-94207000D01*
X146627000Y-94207000D01*
X146627000Y-94227000D01*
X146373000Y-94227000D01*
X146373000Y-94207000D01*
X145179845Y-94207000D01*
X145058524Y-94436890D01*
X145228355Y-94846924D01*
X145618642Y-95275183D01*
X145748478Y-95336157D01*
X145429375Y-95549375D01*
X145101161Y-96040582D01*
X144985908Y-96620000D01*
X144010000Y-96620000D01*
X144010000Y-93723110D01*
X145058524Y-93723110D01*
X145179845Y-93953000D01*
X146373000Y-93953000D01*
X146373000Y-92759181D01*
X146627000Y-92759181D01*
X146627000Y-93953000D01*
X147820155Y-93953000D01*
X147941476Y-93723110D01*
X147771645Y-93313076D01*
X147381358Y-92884817D01*
X146856892Y-92638514D01*
X146627000Y-92759181D01*
X146373000Y-92759181D01*
X146143108Y-92638514D01*
X145618642Y-92884817D01*
X145228355Y-93313076D01*
X145058524Y-93723110D01*
X144010000Y-93723110D01*
X144010000Y-92010000D01*
X156990000Y-92010000D01*
X156990000Y-104990000D01*
M02*
