%TF.GenerationSoftware,KiCad,Pcbnew,(5.0.0-rc2-18-g3893c43eb)*%
%TF.CreationDate,2018-05-30T13:16:08+02:00*%
%TF.ProjectId,micro_first,6D6963726F5F66697273742E6B696361,rev?*%
%TF.SameCoordinates,Original*%
%TF.FileFunction,Legend,Bot*%
%TF.FilePolarity,Positive*%
%FSLAX46Y46*%
G04 Gerber Fmt 4.6, Leading zero omitted, Abs format (unit mm)*
G04 Created by KiCad (PCBNEW (5.0.0-rc2-18-g3893c43eb)) date 05/30/18 13:16:08*
%MOMM*%
%LPD*%
G01*
G04 APERTURE LIST*
%ADD10C,0.150000*%
G04 APERTURE END LIST*
D10*
X151000000Y-98200000D02*
X151500000Y-98200000D01*
X151000000Y-97700000D02*
X151000000Y-98200000D01*
X155600000Y-98200000D02*
X155100000Y-98200000D01*
X155600000Y-98200000D02*
X155600000Y-97700000D01*
X155600000Y-94600000D02*
X155600000Y-95100000D01*
X155600000Y-94600000D02*
X155100000Y-94600000D01*
X151000000Y-94600000D02*
X151500000Y-94600000D01*
X151000000Y-94600000D02*
X151000000Y-95100000D01*
X151000000Y-97700000D02*
X151500000Y-98200000D01*
X153466666Y-101857142D02*
X153514285Y-101904761D01*
X153657142Y-101952380D01*
X153752380Y-101952380D01*
X153895238Y-101904761D01*
X153990476Y-101809523D01*
X154038095Y-101714285D01*
X154085714Y-101523809D01*
X154085714Y-101380952D01*
X154038095Y-101190476D01*
X153990476Y-101095238D01*
X153895238Y-101000000D01*
X153752380Y-100952380D01*
X153657142Y-100952380D01*
X153514285Y-101000000D01*
X153466666Y-101047619D01*
X152514285Y-101952380D02*
X153085714Y-101952380D01*
X152800000Y-101952380D02*
X152800000Y-100952380D01*
X152895238Y-101095238D01*
X152990476Y-101190476D01*
X153085714Y-101238095D01*
X154161904Y-92452380D02*
X154161904Y-93261904D01*
X154114285Y-93357142D01*
X154066666Y-93404761D01*
X153971428Y-93452380D01*
X153780952Y-93452380D01*
X153685714Y-93404761D01*
X153638095Y-93357142D01*
X153590476Y-93261904D01*
X153590476Y-92452380D01*
X152590476Y-93452380D02*
X153161904Y-93452380D01*
X152876190Y-93452380D02*
X152876190Y-92452380D01*
X152971428Y-92595238D01*
X153066666Y-92690476D01*
X153161904Y-92738095D01*
M02*
