%TF.GenerationSoftware,KiCad,Pcbnew,(5.0.0-rc2-18-g3893c43eb)*%
%TF.CreationDate,2018-05-30T13:16:08+02:00*%
%TF.ProjectId,micro_first,6D6963726F5F66697273742E6B696361,rev?*%
%TF.SameCoordinates,Original*%
%TF.FileFunction,Copper,L1,Top,Signal*%
%TF.FilePolarity,Positive*%
%FSLAX46Y46*%
G04 Gerber Fmt 4.6, Leading zero omitted, Abs format (unit mm)*
G04 Created by KiCad (PCBNEW (5.0.0-rc2-18-g3893c43eb)) date 05/30/18 13:16:08*
%MOMM*%
%LPD*%
G01*
G04 APERTURE LIST*
%ADD10R,1.700000X1.700000*%
%ADD11O,1.700000X1.700000*%
%ADD12C,0.254000*%
G04 APERTURE END LIST*
D10*
X146500000Y-101700000D03*
D11*
X146500000Y-99160000D03*
X146500000Y-96620000D03*
X146500000Y-94080000D03*
D12*
G36*
X156990001Y-104990000D02*
X144010000Y-104990000D01*
X144010000Y-96620000D01*
X144985908Y-96620000D01*
X145101161Y-97199418D01*
X145429375Y-97690625D01*
X145727761Y-97890000D01*
X145429375Y-98089375D01*
X145101161Y-98580582D01*
X144985908Y-99160000D01*
X145101161Y-99739418D01*
X145429375Y-100230625D01*
X145447619Y-100242816D01*
X145402235Y-100251843D01*
X145192191Y-100392191D01*
X145051843Y-100602235D01*
X145002560Y-100850000D01*
X145002560Y-102550000D01*
X145051843Y-102797765D01*
X145192191Y-103007809D01*
X145402235Y-103148157D01*
X145650000Y-103197440D01*
X147350000Y-103197440D01*
X147597765Y-103148157D01*
X147807809Y-103007809D01*
X147948157Y-102797765D01*
X147997440Y-102550000D01*
X147997440Y-100850000D01*
X147948157Y-100602235D01*
X147807809Y-100392191D01*
X147597765Y-100251843D01*
X147552381Y-100242816D01*
X147570625Y-100230625D01*
X147898839Y-99739418D01*
X148014092Y-99160000D01*
X147898839Y-98580582D01*
X147570625Y-98089375D01*
X147272239Y-97890000D01*
X147570625Y-97690625D01*
X147898839Y-97199418D01*
X148014092Y-96620000D01*
X147929381Y-96194126D01*
X152945000Y-96194126D01*
X152945000Y-96605874D01*
X153102569Y-96986280D01*
X153393720Y-97277431D01*
X153774126Y-97435000D01*
X154185874Y-97435000D01*
X154566280Y-97277431D01*
X154857431Y-96986280D01*
X155015000Y-96605874D01*
X155015000Y-96194126D01*
X154857431Y-95813720D01*
X154566280Y-95522569D01*
X154185874Y-95365000D01*
X153774126Y-95365000D01*
X153393720Y-95522569D01*
X153102569Y-95813720D01*
X152945000Y-96194126D01*
X147929381Y-96194126D01*
X147898839Y-96040582D01*
X147570625Y-95549375D01*
X147251522Y-95336157D01*
X147381358Y-95275183D01*
X147771645Y-94846924D01*
X147941476Y-94436890D01*
X147820155Y-94207000D01*
X146627000Y-94207000D01*
X146627000Y-94227000D01*
X146373000Y-94227000D01*
X146373000Y-94207000D01*
X145179845Y-94207000D01*
X145058524Y-94436890D01*
X145228355Y-94846924D01*
X145618642Y-95275183D01*
X145748478Y-95336157D01*
X145429375Y-95549375D01*
X145101161Y-96040582D01*
X144985908Y-96620000D01*
X144010000Y-96620000D01*
X144010000Y-93723110D01*
X145058524Y-93723110D01*
X145179845Y-93953000D01*
X146373000Y-93953000D01*
X146373000Y-92759181D01*
X146627000Y-92759181D01*
X146627000Y-93953000D01*
X147820155Y-93953000D01*
X147941476Y-93723110D01*
X147771645Y-93313076D01*
X147381358Y-92884817D01*
X146856892Y-92638514D01*
X146627000Y-92759181D01*
X146373000Y-92759181D01*
X146143108Y-92638514D01*
X145618642Y-92884817D01*
X145228355Y-93313076D01*
X145058524Y-93723110D01*
X144010000Y-93723110D01*
X144010000Y-92010000D01*
X156990000Y-92010000D01*
X156990001Y-104990000D01*
X156990001Y-104990000D01*
G37*
X156990001Y-104990000D02*
X144010000Y-104990000D01*
X144010000Y-96620000D01*
X144985908Y-96620000D01*
X145101161Y-97199418D01*
X145429375Y-97690625D01*
X145727761Y-97890000D01*
X145429375Y-98089375D01*
X145101161Y-98580582D01*
X144985908Y-99160000D01*
X145101161Y-99739418D01*
X145429375Y-100230625D01*
X145447619Y-100242816D01*
X145402235Y-100251843D01*
X145192191Y-100392191D01*
X145051843Y-100602235D01*
X145002560Y-100850000D01*
X145002560Y-102550000D01*
X145051843Y-102797765D01*
X145192191Y-103007809D01*
X145402235Y-103148157D01*
X145650000Y-103197440D01*
X147350000Y-103197440D01*
X147597765Y-103148157D01*
X147807809Y-103007809D01*
X147948157Y-102797765D01*
X147997440Y-102550000D01*
X147997440Y-100850000D01*
X147948157Y-100602235D01*
X147807809Y-100392191D01*
X147597765Y-100251843D01*
X147552381Y-100242816D01*
X147570625Y-100230625D01*
X147898839Y-99739418D01*
X148014092Y-99160000D01*
X147898839Y-98580582D01*
X147570625Y-98089375D01*
X147272239Y-97890000D01*
X147570625Y-97690625D01*
X147898839Y-97199418D01*
X148014092Y-96620000D01*
X147929381Y-96194126D01*
X152945000Y-96194126D01*
X152945000Y-96605874D01*
X153102569Y-96986280D01*
X153393720Y-97277431D01*
X153774126Y-97435000D01*
X154185874Y-97435000D01*
X154566280Y-97277431D01*
X154857431Y-96986280D01*
X155015000Y-96605874D01*
X155015000Y-96194126D01*
X154857431Y-95813720D01*
X154566280Y-95522569D01*
X154185874Y-95365000D01*
X153774126Y-95365000D01*
X153393720Y-95522569D01*
X153102569Y-95813720D01*
X152945000Y-96194126D01*
X147929381Y-96194126D01*
X147898839Y-96040582D01*
X147570625Y-95549375D01*
X147251522Y-95336157D01*
X147381358Y-95275183D01*
X147771645Y-94846924D01*
X147941476Y-94436890D01*
X147820155Y-94207000D01*
X146627000Y-94207000D01*
X146627000Y-94227000D01*
X146373000Y-94227000D01*
X146373000Y-94207000D01*
X145179845Y-94207000D01*
X145058524Y-94436890D01*
X145228355Y-94846924D01*
X145618642Y-95275183D01*
X145748478Y-95336157D01*
X145429375Y-95549375D01*
X145101161Y-96040582D01*
X144985908Y-96620000D01*
X144010000Y-96620000D01*
X144010000Y-93723110D01*
X145058524Y-93723110D01*
X145179845Y-93953000D01*
X146373000Y-93953000D01*
X146373000Y-92759181D01*
X146627000Y-92759181D01*
X146627000Y-93953000D01*
X147820155Y-93953000D01*
X147941476Y-93723110D01*
X147771645Y-93313076D01*
X147381358Y-92884817D01*
X146856892Y-92638514D01*
X146627000Y-92759181D01*
X146373000Y-92759181D01*
X146143108Y-92638514D01*
X145618642Y-92884817D01*
X145228355Y-93313076D01*
X145058524Y-93723110D01*
X144010000Y-93723110D01*
X144010000Y-92010000D01*
X156990000Y-92010000D01*
X156990001Y-104990000D01*
M02*
